HIERARCHY
ROOT Hips
{
	OFFSET 0.000000 121.760803 0.000000
	CHANNELS 6 Xposition Yposition Zposition Xrotation Yrotation Zrotation 
	JOINT Spine
	{
		OFFSET 0.072000 7.257294 -0.789700
		CHANNELS 3 Xrotation Yrotation Zrotation
		JOINT Spine1
		{
			OFFSET 0.000000 12.508769 -0.658067
			CHANNELS 3 Xrotation Yrotation Zrotation
			JOINT Spine1_split
			{
				OFFSET 0.000000 12.508769 -0.658067
				CHANNELS 3 Xrotation Yrotation Zrotation
				JOINT Spine2
				{
					OFFSET 0.000000 12.508769 -0.658067
					CHANNELS 3 Xrotation Yrotation Zrotation
					JOINT Neck
					{
						OFFSET 0.000000 14.033295 7.520400
						CHANNELS 3 Xrotation Yrotation Zrotation
						JOINT Head
						{
							OFFSET 0.000000 8.198502 5.703100
							CHANNELS 3 Xrotation Yrotation Zrotation
							JOINT HeadTop_End
							{
								OFFSET 0.000000 17.760803 13.332701
								CHANNELS 3 Xrotation Yrotation Zrotation
								End Site
								{
									OFFSET 0.000000 0.000000 0.000000
								}
							}
						}
					}
					JOINT LeftShoulder
					{
						OFFSET 6.292450 5.785301 -0.669000
						CHANNELS 3 Xrotation Yrotation Zrotation
						JOINT LeftShoulder_split
						{
							OFFSET 6.292450 5.785301 -0.669000
							CHANNELS 3 Xrotation Yrotation Zrotation
							JOINT LeftArm
							{
								OFFSET 13.907140 -6.093903 1.965100
								CHANNELS 3 Xrotation Yrotation Zrotation
								JOINT LeftForeArm
								{
									OFFSET 34.140198 0.000000 0.000000
									CHANNELS 3 Xrotation Yrotation Zrotation
									JOINT LeftHand
									{
										OFFSET 40.960209 0.000000 0.000000
										CHANNELS 3 Xrotation Yrotation Zrotation
										JOINT LeftHandThumb1
										{
											OFFSET 10.006996 -7.170425 9.573125
											CHANNELS 3 Xrotation Yrotation Zrotation
											JOINT LeftHandThumb2
											{
												OFFSET 1.835007 -1.059448 1.059443
												CHANNELS 3 Xrotation Yrotation Zrotation
												JOINT LeftHandThumb3
												{
													OFFSET 2.112267 -1.219513 1.219518
													CHANNELS 3 Xrotation Yrotation Zrotation
													JOINT LeftHandThumb4
													{
														OFFSET 4.843811 -2.796570 2.796576
														CHANNELS 3 Xrotation Yrotation Zrotation
														End Site
														{
															OFFSET 0.000000 0.000000 0.000000
														}
													}
												}
											}
										}
										JOINT LeftHandIndex1
										{
											OFFSET 18.389847 -0.922348 4.596882
											CHANNELS 3 Xrotation Yrotation Zrotation
											JOINT LeftHandIndex2
											{
												OFFSET 4.711273 0.000000 0.000000
												CHANNELS 3 Xrotation Yrotation Zrotation
												JOINT LeftHandIndex3
												{
													OFFSET 2.886131 0.000000 0.000000
													CHANNELS 3 Xrotation Yrotation Zrotation
													JOINT LeftHandIndex4
													{
														OFFSET 6.145912 0.000000 0.000000
														CHANNELS 3 Xrotation Yrotation Zrotation
														End Site
														{
															OFFSET 0.000000 0.000000 0.000000
														}
													}
												}
											}
										}
										JOINT LeftHandMiddle1
										{
											OFFSET 18.013008 0.000000 0.000000
											CHANNELS 3 Xrotation Yrotation Zrotation
											JOINT LeftHandMiddle2
											{
												OFFSET 4.946693 0.000000 0.000000
												CHANNELS 3 Xrotation Yrotation Zrotation
												JOINT LeftHandMiddle3
												{
													OFFSET 3.342232 0.000000 0.000000
													CHANNELS 3 Xrotation Yrotation Zrotation
													JOINT LeftHandMiddle4
													{
														OFFSET 4.461754 0.000000 0.000000
														CHANNELS 3 Xrotation Yrotation Zrotation
														End Site
														{
															OFFSET 0.000000 0.000000 0.000000
														}
													}
												}
											}
										}
										JOINT LeftHandRing1
										{
											OFFSET 15.849892 -0.102921 -4.126150
											CHANNELS 3 Xrotation Yrotation Zrotation
											JOINT LeftHandRing2
											{
												OFFSET 3.527054 0.000000 0.000000
												CHANNELS 3 Xrotation Yrotation Zrotation
												JOINT LeftHandRing3
												{
													OFFSET 2.961098 0.000000 0.000000
													CHANNELS 3 Xrotation Yrotation Zrotation
													JOINT LeftHandRing4
													{
														OFFSET 4.927200 0.000000 0.000000
														CHANNELS 3 Xrotation Yrotation Zrotation
														End Site
														{
															OFFSET 0.000000 0.000000 0.000000
														}
													}
												}
											}
										}
										JOINT LeftHandPinky1
										{
											OFFSET 12.791824 -0.832031 -6.799156
											CHANNELS 3 Xrotation Yrotation Zrotation
											JOINT LeftHandPinky2
											{
												OFFSET 3.327133 0.000000 0.000000
												CHANNELS 3 Xrotation Yrotation Zrotation
												JOINT LeftHandPinky3
												{
													OFFSET 3.014900 0.000000 0.000000
													CHANNELS 3 Xrotation Yrotation Zrotation
													JOINT LeftHandPinky4
													{
														OFFSET 5.847786 0.000000 0.000000
														CHANNELS 3 Xrotation Yrotation Zrotation
														End Site
														{
															OFFSET 0.000000 0.000000 0.000000
														}
													}
												}
											}
										}
									}
								}
							}
						}
					}
					JOINT RightShoulder
					{
						OFFSET -6.292450 5.785301 -0.669000
						CHANNELS 3 Xrotation Yrotation Zrotation
						JOINT RightShoulder_split
						{
							OFFSET -6.292450 5.785301 -0.669000
							CHANNELS 3 Xrotation Yrotation Zrotation
							JOINT RightArm
							{
								OFFSET -13.907140 -6.093903 1.965100
								CHANNELS 3 Xrotation Yrotation Zrotation
								JOINT RightForeArm
								{
									OFFSET -34.140198 0.000000 0.000000
									CHANNELS 3 Xrotation Yrotation Zrotation
									JOINT RightHand
									{
										OFFSET -40.960209 0.000000 0.000000
										CHANNELS 3 Xrotation Yrotation Zrotation
										JOINT RightHandThumb1
										{
											OFFSET -10.007050 -7.170456 9.573117
											CHANNELS 3 Xrotation Yrotation Zrotation
											JOINT RightHandThumb2
											{
												OFFSET -1.835007 -1.059448 1.059443
												CHANNELS 3 Xrotation Yrotation Zrotation
												JOINT RightHandThumb3
												{
													OFFSET -2.112267 -1.219513 1.219518
													CHANNELS 3 Xrotation Yrotation Zrotation
													JOINT RightHandThumb4
													{
														OFFSET -4.843834 -2.796585 2.796590
														CHANNELS 3 Xrotation Yrotation Zrotation
														End Site
														{
															OFFSET 0.000000 0.000000 0.000000
														}
													}
												}
											}
										}
										JOINT RightHandIndex1
										{
											OFFSET -18.389870 -0.922424 4.596786
											CHANNELS 3 Xrotation Yrotation Zrotation
											JOINT RightHandIndex2
											{
												OFFSET -4.711273 0.000000 0.000000
												CHANNELS 3 Xrotation Yrotation Zrotation
												JOINT RightHandIndex3
												{
													OFFSET -2.886131 0.000000 0.000000
													CHANNELS 3 Xrotation Yrotation Zrotation
													JOINT RightHandIndex4
													{
														OFFSET -6.145920 0.000000 0.000000
														CHANNELS 3 Xrotation Yrotation Zrotation
														End Site
														{
															OFFSET 0.000000 0.000000 0.000000
														}
													}
												}
											}
										}
										JOINT RightHandMiddle1
										{
											OFFSET -18.013008 0.000000 0.000000
											CHANNELS 3 Xrotation Yrotation Zrotation
											JOINT RightHandMiddle2
											{
												OFFSET -4.946693 0.000000 0.000000
												CHANNELS 3 Xrotation Yrotation Zrotation
												JOINT RightHandMiddle3
												{
													OFFSET -3.342232 0.000000 0.000000
													CHANNELS 3 Xrotation Yrotation Zrotation
													JOINT RightHandMiddle4
													{
														OFFSET -4.461754 0.000000 0.000000
														CHANNELS 3 Xrotation Yrotation Zrotation
														End Site
														{
															OFFSET 0.000000 0.000000 0.000000
														}
													}
												}
											}
										}
										JOINT RightHandRing1
										{
											OFFSET -15.849876 -0.102936 -4.126237
											CHANNELS 3 Xrotation Yrotation Zrotation
											JOINT RightHandRing2
											{
												OFFSET -3.527054 0.000000 0.000000
												CHANNELS 3 Xrotation Yrotation Zrotation
												JOINT RightHandRing3
												{
													OFFSET -2.961098 0.000000 0.000000
													CHANNELS 3 Xrotation Yrotation Zrotation
													JOINT RightHandRing4
													{
														OFFSET -4.927200 0.000000 0.000000
														CHANNELS 3 Xrotation Yrotation Zrotation
														End Site
														{
															OFFSET 0.000000 0.000000 0.000000
														}
													}
												}
											}
										}
										JOINT RightHandPinky1
										{
											OFFSET -12.791786 -0.832077 -6.799222
											CHANNELS 3 Xrotation Yrotation Zrotation
											JOINT RightHandPinky2
											{
												OFFSET -3.327133 0.000000 0.000000
												CHANNELS 3 Xrotation Yrotation Zrotation
												JOINT RightHandPinky3
												{
													OFFSET -3.014900 0.000000 0.000000
													CHANNELS 3 Xrotation Yrotation Zrotation
													JOINT RightHandPinky4
													{
														OFFSET -5.847786 0.000000 0.000000
														CHANNELS 3 Xrotation Yrotation Zrotation
														End Site
														{
															OFFSET 0.000000 0.000000 0.000000
														}
													}
												}
											}
										}
									}
								}
							}
						}
					}
				}
			}
		}
	}
	JOINT LeftUpLeg
	{
		OFFSET 13.026900 -6.336304 -1.092800
		CHANNELS 3 Xrotation Yrotation Zrotation
		JOINT LeftLeg
		{
			OFFSET 0.524474 -46.096886 9.782700
			CHANNELS 3 Xrotation Yrotation Zrotation
			JOINT LeftFoot
			{
				OFFSET -0.524474 -53.427422 -12.948200
				CHANNELS 3 Xrotation Yrotation Zrotation
				JOINT LeftToeBase
				{
					OFFSET 0.192200 -14.009700 16.364100
					CHANNELS 3 Xrotation Yrotation Zrotation
					JOINT LeftToe_End
					{
						OFFSET -1.784700 -0.561700 9.474800
						CHANNELS 3 Xrotation Yrotation Zrotation
						End Site
						{
							OFFSET 0.000000 0.000000 0.000000
						}
					}
				}
			}
		}
	}
	JOINT RightUpLeg
	{
		OFFSET -12.883000 -6.336304 -1.092800
		CHANNELS 3 Xrotation Yrotation Zrotation
		JOINT RightLeg
		{
			OFFSET -0.524587 -46.096825 9.782800
			CHANNELS 3 Xrotation Yrotation Zrotation
			JOINT RightFoot
			{
				OFFSET 0.524587 -53.427383 -12.948300
				CHANNELS 3 Xrotation Yrotation Zrotation
				JOINT RightToeBase
				{
					OFFSET -0.192200 -14.009700 16.364100
					CHANNELS 3 Xrotation Yrotation Zrotation
					JOINT RightToe_End
					{
						OFFSET 1.784700 -0.561700 9.474800
						CHANNELS 3 Xrotation Yrotation Zrotation
						End Site
						{
							OFFSET 0.000000 0.000000 0.000000
						}
					}
				}
			}
		}
	}
}
MOTION
Frames: 4
Frame Time: 0.016667
0.715812 112.871201 -60.437752 168.810448 -64.124596 167.406448 4.891553 2.035759 5.476412 -5.203247 2.467266 -3.030997 0.000000 0.000000 0.000000 -5.047561 2.231916 -3.347160 0.930290 23.548877 10.139637 4.348298 27.823728 -14.089298 -0.000000 -0.000001 0.000000 1.079196 -0.344047 0.608159 0.000000 0.000000 0.000000 7.615778 0.677533 -69.161690 8.512037 -19.175254 -8.473992 -0.253756 5.731289 10.881014 -1.204159 -0.037739 2.325167 0.318665 1.093446 0.433689 1.367140 3.087630 0.738681 0.000000 -0.000001 -0.000001 0.780522 2.266531 -9.845900 -0.039212 0.057416 -8.823538 0.004835 0.021885 -11.483936 0.000004 0.000000 0.000000 -0.057940 1.143077 -15.947756 -0.014710 -0.043622 -10.491576 0.026423 0.018657 -12.894190 0.000001 -0.000001 -0.000002 -0.956183 0.304849 -20.266071 0.002273 0.016826 -13.465764 -0.030268 -0.026583 -16.389111 0.000000 0.000001 -0.000001 -2.256735 -1.970769 -24.904415 -0.016581 -0.001857 -16.389708 -0.007809 0.005391 -18.179674 0.000000 0.000001 0.000003 2.374287 -3.484726 16.761276 0.000000 0.000000 0.000000 13.068517 30.204008 51.934791 13.595714 26.328829 -0.878556 -25.360443 0.110620 -14.410970 2.581834 -11.453562 -2.444558 -0.570762 -0.849133 0.050498 2.109290 -4.858601 -1.153884 -0.000000 -0.000000 0.000001 1.440379 0.413056 28.354777 -0.036432 -0.061695 22.129068 0.006693 -0.030082 21.882657 -0.000001 0.000000 -0.000001 1.194443 -2.816513 28.395506 -0.003761 0.018411 22.137620 0.032953 -0.034203 21.915219 0.000000 0.000001 0.000001 2.678399 -6.989709 31.433743 -0.003196 0.002758 24.099368 -0.036644 0.027520 23.863860 0.000000 0.000001 0.000002 1.168959 -9.903102 35.638025 -0.027263 -0.005255 28.957007 -0.016109 0.017625 28.716878 0.000000 0.000001 0.000001 -30.350349 2.826986 15.959188 36.981342 -0.989177 -2.093701 -5.651460 1.515506 -5.002663 2.749712 5.423099 -7.268801 0.000002 -0.000001 0.000000 -14.588734 -12.324200 9.449311 24.491441 11.214063 1.128373 -12.305450 0.004232 -12.632926 -2.307848 -8.055611 0.493680 -0.000000 -0.000001 -0.000000 
0.262056 112.948982 -61.468983 170.041767 -61.201487 168.763852 5.114019 2.303506 5.298129 -5.105463 2.660214 -2.985250 0.000000 0.000000 0.000000 -4.948699 2.420743 -3.321704 1.055487 22.542819 10.042751 3.926666 26.820355 -13.626395 0.000000 -0.000001 0.000000 1.084987 -0.270537 0.764948 0.000000 0.000000 0.000000 7.759419 1.002657 -69.954565 9.038386 -17.908104 -8.643452 -0.335429 5.197247 10.898100 -1.478753 -0.052901 2.856639 0.423964 1.338721 0.492548 1.663856 3.799695 0.897486 0.000003 0.000001 -0.000000 0.776357 2.123244 -10.418611 -0.038685 0.058195 -9.704969 0.005377 0.023800 -12.991728 0.000002 0.000000 0.000002 -0.070167 1.239200 -17.072148 -0.015193 -0.043091 -11.179848 0.026465 0.018085 -14.160526 0.000001 -0.000001 0.000000 -0.932951 0.718937 -21.232290 0.001390 0.016845 -14.059890 -0.030566 -0.025427 -17.693677 0.000001 -0.000001 0.000001 -2.179905 -1.508463 -25.735062 -0.015909 -0.001804 -16.850618 -0.007685 0.005639 -19.102564 0.000001 0.000000 -0.000002 2.402569 -3.497406 16.751801 0.000000 0.000000 0.000000 12.583206 31.110921 52.037767 13.766156 26.236975 -1.171566 -25.494547 0.419195 -14.057179 2.689869 -11.385047 -2.336696 -0.589404 -0.816129 0.061325 2.078751 -4.785308 -1.138260 0.000000 0.000000 -0.000001 1.424555 0.474529 28.171914 -0.036563 -0.061446 21.925419 0.005981 -0.029992 21.678086 -0.000000 0.000002 0.000002 1.214506 -2.843285 28.205628 -0.004079 0.018558 22.050431 0.032213 -0.033612 21.858530 -0.000001 0.000000 0.000002 2.743096 -7.190500 31.250486 -0.003112 0.002934 24.042244 -0.036866 0.027664 23.766596 0.000001 0.000000 0.000004 1.304916 -10.155920 35.440813 -0.027394 -0.004634 28.751767 -0.016534 0.018071 28.511943 0.000001 -0.000001 0.000000 -30.301813 -0.428902 13.694110 36.648152 -1.470427 -2.065065 -5.347951 1.852985 -5.963008 2.574852 6.807082 -8.072501 0.000001 0.000001 -0.000001 -13.912576 -11.121395 9.961395 24.059425 13.394749 1.677376 -11.914284 -0.350480 -13.871511 -2.374900 -7.985144 0.467722 -0.000000 0.000003 0.000000 
-0.201643 113.069809 -62.539719 171.061132 -58.298424 169.942961 5.307908 2.532239 5.002845 -4.955285 2.804417 -2.879611 0.000000 0.000000 0.000000 -4.801089 2.565714 -3.228154 1.136428 21.321718 9.663834 3.243141 25.509220 -12.836988 0.000000 0.000001 0.000000 1.090521 -0.182201 0.891429 0.000000 0.000000 0.000000 7.710989 1.275670 -70.804610 9.524818 -16.278598 -8.901427 -0.390373 4.458858 10.944904 -1.769600 -0.071493 3.420123 0.535326 1.598857 0.554606 1.976570 4.555682 1.061941 -0.000002 0.000001 0.000003 0.768845 1.971731 -11.025872 -0.038097 0.058901 -10.639451 0.006028 0.025602 -14.590642 -0.000000 -0.000001 -0.000002 -0.080008 1.342135 -18.264401 -0.015684 -0.042500 -11.909588 0.026540 0.017529 -15.503322 0.000003 0.000000 0.000003 -0.893381 1.157125 -22.256288 0.000504 0.016850 -14.689855 -0.030891 -0.024226 -19.077015 -0.000002 -0.000000 -0.000003 -2.084344 -1.021315 -26.615700 -0.015232 -0.001725 -17.339258 -0.007451 0.005879 -20.081202 0.000000 0.000002 0.000002 2.414814 -3.468818 16.571755 0.000000 0.000000 0.000000 11.779236 32.237824 52.296549 13.724237 25.885341 -1.445391 -25.372613 0.810127 -13.612453 2.749181 -11.300865 -2.257984 -0.586608 -0.825561 0.059891 2.064362 -4.749253 -1.130736 0.000000 0.000001 0.000002 1.416255 0.519343 27.896021 -0.036855 -0.061113 21.624294 0.005107 -0.029919 21.376001 0.000001 0.000002 0.000002 1.234003 -2.874395 27.920251 -0.004613 0.018907 21.892968 0.031281 -0.032909 21.738926 -0.000000 -0.000001 0.000000 2.793558 -7.399031 30.970909 -0.003035 0.003474 23.922107 -0.037512 0.027852 23.596762 0.000000 0.000000 0.000001 1.432152 -10.393844 35.139684 -0.027691 -0.003784 28.434100 -0.017151 0.018811 28.194562 0.000001 -0.000000 -0.000002 -30.166777 -4.030726 11.390440 35.919521 -1.530539 -1.988646 -5.118026 2.172485 -6.288407 2.374439 8.970969 -9.468913 -0.000000 0.000002 0.000000 -13.153063 -9.912241 10.388773 23.519133 15.531872 2.218611 -11.467038 -0.686171 -15.052272 -2.450155 -7.915206 0.444011 0.000000 0.000001 0.000000 
-0.670255 113.215797 -63.631824 171.912965 -55.401888 170.972175 5.494572 2.740918 4.646471 -4.780149 2.924331 -2.745297 0.000000 0.000000 0.000000 -4.630334 2.689127 -3.101843 1.155760 19.904763 9.110444 2.411545 23.932109 -11.826768 0.000000 -0.000001 -0.000000 1.095807 -0.075117 0.979791 0.000000 0.000000 0.000000 7.590609 1.535485 -71.647373 10.023766 -14.552008 -9.196433 -0.424796 3.666678 10.967959 -2.073302 -0.093872 4.009386 0.651486 1.871049 0.618948 2.301617 5.347027 1.229652 -0.000001 0.000002 0.000004 0.757629 1.813759 -11.660788 -0.037472 0.059749 -11.616600 0.006691 0.027253 -16.262353 0.000001 -0.000001 -0.000002 -0.085264 1.450685 -19.510861 -0.016171 -0.041868 -12.672602 0.026608 0.016931 -16.907245 0.000001 -0.000000 0.000000 -0.835504 1.613784 -23.326414 -0.000329 0.016817 -15.348483 -0.031225 -0.022994 -20.523286 -0.000002 0.000002 0.000002 -1.968858 -0.515657 -27.536526 -0.014512 -0.001575 -17.850245 -0.007326 0.006156 -21.104409 0.000001 -0.000000 0.000000 2.421331 -3.425024 16.328216 0.000000 0.000000 0.000000 10.845208 33.443874 52.653628 13.606761 25.436961 -1.713359 -25.161078 1.234073 -13.135270 2.763436 -11.202515 -2.206394 -0.565043 -0.874825 0.047917 2.063675 -4.748164 -1.130091 0.000000 -0.000000 0.000005 1.414813 0.548695 27.535105 -0.037214 -0.060771 21.233837 0.004037 -0.029834 20.984609 -0.000000 -0.000002 0.000004 1.252670 -2.909466 27.547276 -0.005335 0.019435 21.671082 0.030138 -0.032749 21.561575 0.000000 -0.000001 0.000000 2.829537 -7.614530 30.603134 -0.002878 0.004158 23.744108 -0.037220 0.028402 23.360345 0.000001 0.000002 0.000001 1.549888 -10.618315 34.743533 -0.028179 -0.002632 28.013406 -0.017944 0.019788 27.774138 0.000001 0.000001 -0.000001 -30.292186 -7.234543 9.365600 34.911385 -1.534219 -1.872741 -4.650510 2.490226 -7.107908 2.407375 10.172824 -10.169142 -0.000000 0.000001 0.000000 -12.342247 -8.711728 10.734717 22.911118 17.628035 2.748397 -10.977122 -0.984913 -16.167773 -2.532331 -7.847128 0.422482 -0.000000 0.000001 0.000000 
